<svg xmlns="http://www.w3.org/2000/svg" xmlns:xlink="http://www.w3.org/1999/xlink" viewBox="0 0 401.8969 401.8969">
  <defs>
    <style>
      .cls-1, .cls-3, .cls-4, .cls-5 {
        fill: none;
      }

      .cls-2 {
        fill: #fff;
      }

      .cls-11, .cls-3, .cls-4, .cls-5 {
        stroke: #1e88cc;
      }

      .cls-3, .cls-4, .cls-5 {
        stroke-miterlimit: 10;
      }

      .cls-3 {
        stroke-width: 10.0969px;
      }

      .cls-4 {
        stroke-width: 2.7537px;
      }

      .cls-5 {
        stroke-width: 5.5074px;
      }

      .cls-6 {
        fill: #0089d2;
      }

      .cls-7 {
        fill: #c91f3b;
      }

      .cls-8 {
        fill: #fcfcfc;
      }

      .cls-9 {
        clip-path: url(#clip-path);
      }

      .cls-10 {
        clip-path: url(#clip-path-2);
      }

      .cls-11, .cls-12 {
        fill: #1e88cc;
      }

      .cls-11 {
        stroke-linecap: round;
        stroke-linejoin: round;
        stroke-width: 2.2565px;
      }

      .cls-13 {
        isolation: isolate;
      }
    </style>
    <clipPath id="clip-path">
      <path class="cls-1" d="M161.4484,242.1485s-.9-2.8-2.6-3.5c-1-.4-11.2,3.1-11,5.8C147.8485,246.4484,159.3485,243.5484,161.4484,242.1485Z"/>
    </clipPath>
    <clipPath id="clip-path-2">
      <path class="cls-1" d="M161.9484,251.4484c.8-.5.9-4.9.3-5.5-.7-.7-13.7,3.2-13.4,6.1C149.1485,254.3484,157.9484,254.0484,161.9484,251.4484Z"/>
    </clipPath>
  </defs>
  <title>Tampon_france</title>
  <g id="Calque_2" data-name="Calque 2">
    <g id="Total">
      <g id="Tampon_france">
        <g id="Calque_12" data-name="Calque 12">
          <g>
            <circle class="cls-2" cx="200.9485" cy="200.8484" r="195.9"/>
            <circle class="cls-3" cx="200.9485" cy="200.9484" r="195.9"/>
            <circle class="cls-4" cx="200.6485" cy="201.5484" r="180.1"/>
            <circle class="cls-5" cx="201.8485" cy="202.7484" r="133.2"/>
            <path class="cls-6" d="M182.7484,296.8484a201.4516,201.4516,0,0,1-34.7-6.7s4.7-9.9,5.2-27.9c0,0-10.5,0-11.3-4.9-.9-4.9,4.1-7.8,4.1-7.8s-4.7,0-5.2-2.3c-.8-3.3,7.8-8.7,13.1-11,0,0-3.8-52.3-19.5-93.6,0,0-11.1,4-15.1-1.7-2.6-3.8,5.5-11.3,5.5-11.3s-8.4,5.5-9.3,0,9-15.1,12.5-16.3,9.3,2.6,54.6,113.7c0,0,6.4,18.3-10.8,35.8a72.4921,72.4921,0,0,0,19.5,1.1"/>
            <path class="cls-7" d="M217.0484,256.7484a57.7813,57.7813,0,0,0,16.4-12.3s30.5-103.2,45.6-134.3c0,0,12.8,6.1,9.9,14.8s-6.7,10.2-7.8,11.3-21.8,93-15.7,152.6c0,0-13.6,4.9-35.2,7.5"/>
            <path class="cls-6" d="M146.0484,285.4484s-11.3,3.8-2.6,9.9,46.5,8.4,54.1,8.7c0,0-57.8,6.1-71.2-7.3C118.3485,288.9484,146.0484,285.4484,146.0484,285.4484Z"/>
            <path class="cls-6" d="M239.5484,304.0484s46.8-7.6,29.9-17.4c0,0,14.2,1.5,14.2,5.8S268.6485,302.8484,239.5484,304.0484Z"/>
            <path class="cls-6" d="M173.3485,313.6485s20.3-1,34.6-3.8c0,0,7.8,4.4,22.4,3.5C230.2484,313.3484,207.8485,319.0484,173.3485,313.6485Z"/>
            <g>
              <path class="cls-7" d="M273.7484,124.1485s-4.8-3.5-4.2-5.1c.5-1.2,2.9-1.6,6.9-1.8Z"/>
              <path class="cls-7" d="M269.6485,136.0484s-4.5-4.1-3.9-5.7c.5-1.2,2.6-1.9,6.6-2.1Z"/>
              <path class="cls-7" d="M263.0484,152.1485s-3.4-5.1-2.5-6.9c.7-1.4,3.6-1.9,6.6-2Z"/>
              <path class="cls-7" d="M258.4484,169.3484s-3.9-4.7-3.2-6.6c.5-1.5,3.4-2.3,6.4-2.6Z"/>
              <path class="cls-7" d="M254.4484,177.6485s-4.6,1.2-5.3,3.6c-.8,2.5,1.8,7.7,1.7,7.6Z"/>
              <path class="cls-7" d="M249.2484,196.2484s-5.6.3-6.5,2.8c-.7,1.9.6,5.9,2.7,9Z"/>
              <path class="cls-7" d="M243.1485,216.5484s-6.8.9-7.6,4.1c-.6,2.4,1.4,7.2,4.2,10.7Z"/>
              <path class="cls-7" d="M237.9484,240.9484s-6.2-1.7-8.1.7c-1.4,1.9-1.5,6.7-.3,10.8Z"/>
            </g>
            <g id="yeux">
              <g>
                <path id="_Masque_3" data-name=" Masque 3" class="cls-8" d="M161.4484,242.1485s-.9-2.8-2.6-3.5c-1-.4-11.2,3.1-11,5.8C147.8485,246.4484,159.3485,243.5484,161.4484,242.1485Z"/>
                <g class="cls-9">
                  <ellipse class="cls-6" cx="156.2369" cy="240.1641" rx="6" ry="1.9" transform="translate(-60.5288 52.8104) rotate(-16.117)"/>
                </g>
              </g>
              <g>
                <path id="_Masque_4" data-name=" Masque 4" class="cls-8" d="M161.9484,251.4484c.8-.5.9-4.9.3-5.5-.7-.7-13.7,3.2-13.4,6.1C149.1485,254.3484,157.9484,254.0484,161.9484,251.4484Z"/>
                <g class="cls-10">
                  <ellipse class="cls-6" cx="158.2278" cy="248.4877" rx="6.4" ry="2" transform="translate(-63.2475 54.2433) rotate(-16.2602)"/>
                </g>
              </g>
            </g>
            <g>
              <polygon class="cls-11" points="59.648 129.148 61.448 140.348 71.648 145.148 61.548 150.348 60.048 161.548 52.048 153.548 40.948 155.648 46.048 145.548 40.648 135.648 51.848 137.348 59.648 129.148"/>
              <polygon class="cls-11" points="45.648 170.148 49.948 180.548 61.048 182.848 52.448 190.248 53.748 201.448 44.048 195.648 33.748 200.248 36.348 189.248 28.748 180.848 39.948 179.948 45.648 170.148"/>
              <polygon class="cls-11" points="43.448 214.048 49.948 223.248 61.248 223.148 54.448 232.248 58.048 242.948 47.348 239.248 38.248 245.948 38.448 234.648 29.248 228.148 40.048 224.848 43.448 214.048"/>
            </g>
            <g>
              <polygon class="cls-11" points="342.748 129.148 340.948 140.348 330.748 145.148 340.748 150.348 342.248 161.548 350.248 153.548 361.348 155.648 356.248 145.548 361.648 135.648 350.448 137.348 342.748 129.148"/>
              <polygon class="cls-11" points="356.748 170.148 352.348 180.548 341.248 182.848 349.848 190.248 348.648 201.448 358.248 195.648 368.648 200.248 366.048 189.248 373.648 180.848 362.348 179.948 356.748 170.148"/>
              <polygon class="cls-11" points="358.848 214.048 352.348 223.248 341.048 223.148 347.848 232.248 344.248 242.948 354.948 239.248 364.048 245.948 363.848 234.648 373.048 228.148 362.248 224.848 358.848 214.048"/>
            </g>
            <g>
              <path class="cls-12" d="M153.7717,66.7328l-.9546-3.1992,3.2637-.9736-5.4854-18.376-3.2642.9736-.9644-3.2314,9.8242-2.9326.9648,3.2314-3.2642.9746,5.4858,18.376,3.2637-.9746.9551,3.1992Z"/>
              <path class="cls-12" d="M164.7644,42.9232l3.7773,19.7041-3.1113.5967-4.88-25.458,3.479-.667,5.3433,5.9814,2.7861-7.54,3.479-.667,4.88,25.458-3.1108.5967L173.63,41.224l-2.1123,5.9893-2.5757.4932Z"/>
              <path class="cls-12" d="M182.302,60.1928,180.0065,34.476a17.4758,17.4758,0,0,1,5.2725-.3164,8.5748,8.5748,0,0,1,3.5923,1.167,5.7668,5.7668,0,0,1,2.1226,2.3242,8.769,8.769,0,0,1,.8633,3.1543A9.0218,9.0218,0,0,1,191.68,43.42a7.9143,7.9143,0,0,1-1.127,2.6992,8.5465,8.5465,0,0,1-2.3213,2.3447,10.0987,10.0987,0,0,1-3.7632,1.5156l.8872,9.94Zm6.1963-19.0879a5.1106,5.1106,0,0,0-.4185-1.6211,3.6909,3.6909,0,0,0-.9722-1.3154,3.8313,3.8313,0,0,0-1.5576-.7842,5.2975,5.2975,0,0,0-2.208-.0254l.79,8.8555a5.6771,5.6771,0,0,0,2.1489-.6367,4.4994,4.4994,0,0,0,1.3838-1.167,3.9542,3.9542,0,0,0,.7178-1.5342A5.6294,5.6294,0,0,0,188.4982,41.1049Z"/>
              <path class="cls-12" d="M195.6457,59.1459l-.4238-25.8164q1.021-.05,2.06-.0674t2.0444.0176a15.1256,15.1256,0,0,1,1.8765.1738,8.8335,8.8335,0,0,1,1.522.3662,6.1923,6.1923,0,0,1,2.0811,1.1924,6.0115,6.0115,0,0,1,1.2871,1.6309,7.0367,7.0367,0,0,1,.6782,1.88,13.0641,13.0641,0,0,1,.2539,1.9717,9.38,9.38,0,0,1-.2319,2.49,8.2658,8.2658,0,0,1-.915,2.3486,6.9933,6.9933,0,0,1-1.6548,1.918,6.6593,6.6593,0,0,1-2.4839,1.2334L207.43,58.9525l-3.6782.0605-5.2026-9.7939.1621,9.876ZM203.6525,40.55a6.2427,6.2427,0,0,0-.3853-1.6973,3.2034,3.2034,0,0,0-.9414-1.3135,4.1309,4.1309,0,0,0-1.6143-.791,6.9587,6.9587,0,0,0-2.37-.1309l.145,8.8545a6.2894,6.2894,0,0,0,2.4155-.21,3.8043,3.8043,0,0,0,1.6528-.998,3.9006,3.9006,0,0,0,.91-1.6328A5.8954,5.8954,0,0,0,203.6525,40.55Z"/>
              <path class="cls-12" d="M208.9851,59.0883l.2212-3.3311,3.3989.2256,1.2725-19.1348-3.3989-.2256.2241-3.3652,10.23.6807-.2236,3.3643-3.3989-.2256-1.2725,19.1348,3.3989.2266-.2217,3.33Z"/>
              <path class="cls-12" d="M227.424,40.5394l-3.1318,19.8174-3.1289-.4951,4.0459-25.6035,3.499.5527,2.998,7.4395,5.1777-6.1475,3.5.5527L236.3371,62.26l-3.1289-.4951,3.1309-19.8164-4.0176,4.917-2.5908-.4092Z"/>
              <path class="cls-12" d="M254.341,40.2309l-.8408,3.23-6.4277-1.6738-2.2744,8.7354,5.373,1.3994-.8574,3.2959-5.373-1.3984-1.6992,6.5264,6.4365,1.6406-.8584,3.2969-9.79-2.5488L244.551,37.682Zm-6.043-2.207-1.0391-2.77,5.3154-2.03,1.0479,2.7363Z"/>
            </g>
            <g>
              <path class="cls-12" d="M176.2233,340.6449l-.8916,4.2129-8.3838-1.7734-2.4106,11.3926,7.0078,1.4834-.91,4.2988-7.0078-1.4824-2.7017,12.77-4.3853-.9287,6.9136-32.6748Z"/>
              <path class="cls-12" d="M173.9943,374.1225l3.9688-33.0732q1.314.1143,2.6445.2725t2.61.38a19.71,19.71,0,0,1,2.3682.55,11.495,11.495,0,0,1,1.8818.7344,7.987,7.987,0,0,1,2.4512,1.8877,7.7372,7.7372,0,0,1,1.36,2.3105,9.074,9.074,0,0,1,.5386,2.5205,16.8866,16.8866,0,0,1-.02,2.5645,12.1346,12.1346,0,0,1-.7314,3.1436,10.6854,10.6854,0,0,1-1.5806,2.8418,9.0216,9.0216,0,0,1-2.45,2.1631,8.5994,8.5994,0,0,1-3.39,1.1426l5.4453,14.374-4.7124-.5654L179.44,361.94l-1.5186,12.6533Zm13.4839-22.3711a8.0571,8.0571,0,0,0-.1963-2.2373,4.1244,4.1244,0,0,0-.9741-1.8428,5.3028,5.3028,0,0,0-1.9248-1.293,8.9948,8.9948,0,0,0-3.0063-.582L180.0153,357.14a8.129,8.129,0,0,0,3.124.1543,4.9064,4.9064,0,0,0,2.2871-.9873,5.0338,5.0338,0,0,0,1.4487-1.9287A7.5926,7.5926,0,0,0,187.4782,351.7514Z"/>
              <path class="cls-12" d="M210.4377,376.8627l-4.26-.1543-1.873-10.2256-6.0605-.2187-2.6064,10.0635-4.26-.1533,8.63-33.1523,4.2158.1523Zm-11.1162-14.8691,4.1724.15-1.7231-9.5166Z"/>
              <path class="cls-12" d="M217.6237,351.4369l3.709,24.64-4.0415.6084-4.9775-33.07,4.519-.68,14.47,21.73-3.52-23.3789,4.1289-.6211,4.9775,33.0693-4.1279.6211Z"/>
              <path class="cls-12" d="M247.4592,340.99a2.925,2.925,0,0,0-1.3877-.2217,5.3549,5.3549,0,0,0-1.2949.2109,5.0417,5.0417,0,0,0-2.1943,2.07,8.6847,8.6847,0,0,0-1.0312,3.3115,18.0447,18.0447,0,0,0,.0625,4.3438,30.021,30.021,0,0,0,1.12,5.1113,18.5346,18.5346,0,0,0,1.46,3.5225,14.623,14.623,0,0,0,2.0645,2.959,8.8689,8.8689,0,0,0,2.3926,1.9053,3.6246,3.6246,0,0,0,2.5049.3916,3.4436,3.4436,0,0,0,1.4521-.7227,6.9841,6.9841,0,0,0,1.39-1.4873l3.085,2.9746a6.644,6.644,0,0,1-2.1973,2.4189,11.3484,11.3484,0,0,1-2.4639,1.165,6.3585,6.3585,0,0,1-4.2246-.0674,11.578,11.578,0,0,1-3.9375-2.47,19.1524,19.1524,0,0,1-3.33-4.166,26.3291,26.3291,0,0,1-2.418-5.1992,29.0189,29.0189,0,0,1-1.3848-6.4336,20.865,20.865,0,0,1,.2314-6.1475,12.28,12.28,0,0,1,2.1172-4.9551,7.8722,7.8722,0,0,1,4.3008-2.9131,10.5121,10.5121,0,0,1,1.9-.3359,7.5987,7.5987,0,0,1,2.0488.123Z"/>
              <path class="cls-12" d="M260.7619,329.515l1.7783,3.9219-7.8037,3.5391,4.81,10.6064,6.5234-2.958,1.8145,4.002-6.5234,2.958,3.5938,7.9248L272.74,355.93l1.8145,4.002-11.8867,5.3906-13.793-30.417Z"/>
            </g>
            <g class="cls-13">
              <path class="cls-12" d="M197.9978,134.2152v3.3379h-6.6421V146.58h5.5522v3.4063h-5.5522v6.7441l6.6421-.0342v3.4063H187.8811V134.2152Z"/>
              <path class="cls-12" d="M203.6521,140.7894v19.3135h-3.168V134.181h3.5425l8.584,18.3262V134.181h3.2358v25.9219h-3.2358Z"/>
            </g>
            <path class="cls-6" d="M131.9484,115.7484s6.1-.6,7,.9c.7,1.1-.9,3.8-3.2,5.5Z"/>
            <path class="cls-6" d="M138.9484,128.0484s6.1-.8,7,.8c.7,1.2-.8,4.3-3.1,6.3Z"/>
            <path class="cls-6" d="M147.8485,146.5484s5.2-.2,6.1,1.6c.7,1.4-.5,4.6-2.3,7Z"/>
            <path class="cls-6" d="M156.0484,164.5484s5.3-.5,6.4,1.8c.8,1.7,0,5.9-1.7,9Z"/>
            <path class="cls-6" d="M163.5484,183.7484s5.3-.5,6.4,1.8c.8,1.7,0,5.9-1.7,9Z"/>
            <path class="cls-6" d="M170.5484,201.7484s6.4-.3,7.6,2.4c1,2.1,0,6.8-2,10.5Z"/>
            <path class="cls-6" d="M178.4484,221.4484s6.9.5,7.8,3.6c.8,2.4-1,7.2-3.6,10.9Z"/>
          </g>
        </g>
      </g>
    </g>
  </g>
</svg>
