<?xml version="1.0" standalone="no"?>
<!DOCTYPE svg PUBLIC "-//W3C//DTD SVG 20010904//EN"
 "http://www.w3.org/TR/2001/REC-SVG-20010904/DTD/svg10.dtd">
<svg version="1.0" xmlns="http://www.w3.org/2000/svg"
 width="1092.000000pt" height="1092.000000pt" viewBox="0 0 1092.000000 1092.000000"
 preserveAspectRatio="xMidYMid meet">
<metadata>
Created by potrace 1.11, written by Peter Selinger 2001-2013
</metadata>
<g transform="translate(0.000000,1092.000000) scale(0.100000,-0.100000)"
fill="#000000" stroke="none">
<path d="M9497 10842 c-43 -93 -98 -215 -116 -259 -8 -18 -16 -33 -20 -34 -3
0 -17 -2 -31 -4 -14 -2 -50 -6 -80 -10 -30 -3 -72 -8 -93 -10 -52 -7 -125 -43
-132 -66 -15 -46 7 -83 101 -176 l94 -92 -20 -53 c-12 -29 -27 -66 -35 -83 -7
-16 -17 -42 -20 -58 -9 -34 -19 -40 -70 -44 -94 -7 -201 -38 -231 -68 -29 -29
-32 -48 -11 -97 11 -26 24 -48 28 -48 5 0 9 -6 9 -13 0 -7 10 -23 23 -37 13
-14 39 -43 60 -66 l36 -41 -20 -54 c-12 -30 -34 -90 -50 -134 -15 -44 -37
-104 -48 -132 -10 -29 -17 -53 -15 -53 2 0 -2 -10 -11 -23 -10 -16 -26 -24
-50 -25 -65 -5 -139 -22 -182 -43 -55 -27 -76 -65 -67 -122 10 -69 21 -99 65
-178 67 -122 64 -111 44 -176 -10 -32 -17 -58 -14 -59 2 0 -1 -7 -7 -15 -9
-12 -75 -198 -76 -213 0 -22 -38 -100 -49 -102 -41 -7 -67 -13 -94 -24 -16 -6
-32 -12 -35 -12 -3 0 -21 -9 -42 -19 -44 -22 -78 -64 -78 -94 0 -31 31 -125
42 -125 4 0 8 -7 8 -15 0 -9 16 -39 36 -67 24 -36 33 -59 29 -73 -3 -11 -8
-31 -11 -44 -3 -13 -12 -37 -20 -52 -8 -16 -14 -32 -14 -36 -1 -5 -6 -26 -12
-48 -15 -51 -14 -47 -22 -67 -4 -9 -8 -22 -10 -30 -1 -7 -5 -19 -9 -25 -5 -7
-6 -13 -4 -13 3 0 -10 -39 -27 -87 l-32 -87 -50 -16 c-84 -29 -137 -60 -185
-110 l-46 -48 2 -73 c1 -41 5 -87 9 -104 15 -59 39 -131 58 -173 11 -24 20
-51 20 -60 1 -10 -24 -95 -55 -190 -31 -96 -57 -180 -57 -187 0 -19 -21 -32
-63 -39 -52 -8 -141 -37 -148 -49 -3 -5 -9 -7 -12 -5 -3 1 -21 -9 -40 -25 -34
-27 -49 -64 -51 -127 -1 -26 21 -141 34 -175 4 -11 8 -23 9 -27 1 -4 19 -41
39 -82 l38 -75 -29 -93 c-16 -51 -30 -97 -31 -103 -3 -12 -61 -201 -83 -268
-8 -27 -17 -46 -20 -43 -3 2 -24 -2 -46 -11 -23 -8 -50 -16 -60 -18 -41 -9
-144 -66 -178 -99 -19 -19 -40 -50 -45 -68 -23 -76 5 -199 80 -352 l54 -110
-23 -75 c-13 -42 -35 -114 -49 -161 -13 -47 -36 -123 -51 -170 -14 -47 -28
-92 -30 -100 -2 -8 -8 -27 -14 -42 -6 -16 -7 -28 -4 -28 4 0 3 -4 -2 -9 -6 -6
-43 -11 -84 -12 -95 -3 -166 -36 -197 -93 -36 -64 -52 -189 -42 -319 4 -46 0
-51 -128 -147 -54 -41 -100 -78 -102 -82 -2 -5 -10 -8 -18 -8 -8 0 -14 -3 -14
-8 0 -4 -9 -12 -19 -17 -11 -6 -70 -41 -133 -78 -62 -38 -120 -72 -128 -77
-35 -21 -126 -63 -132 -62 -5 1 -8 -2 -8 -8 0 -5 -4 -10 -10 -10 -5 0 -33 -11
-62 -24 -94 -42 -193 -81 -200 -78 -5 1 -8 -2 -8 -6 0 -5 -6 -9 -12 -9 -7 0
-62 -17 -122 -37 -60 -20 -119 -38 -130 -41 -12 -2 -70 -16 -131 -31 -128 -30
-139 -32 -184 -40 -18 -3 -41 -7 -50 -9 -36 -6 -98 -16 -136 -21 -22 -3 -51
-6 -65 -8 -116 -15 -246 -21 -490 -21 -274 1 -436 9 -545 30 -16 3 -46 7 -65
9 -50 6 -114 17 -119 22 -2 1 9 16 25 32 27 27 109 121 144 166 8 10 27 33 42
51 16 18 28 38 28 44 0 6 3 11 8 11 4 0 16 16 26 35 11 19 23 35 28 35 4 0 8
4 8 9 0 5 25 50 55 100 30 51 55 94 55 96 0 3 19 44 41 92 23 49 42 93 44 98
1 6 5 17 8 25 20 52 66 213 72 255 4 28 10 55 13 60 4 6 7 19 8 30 1 18 8 77
20 177 2 21 18 60 34 88 17 28 30 57 30 65 0 7 4 15 8 17 9 4 48 107 66 177
39 153 -1 263 -111 303 -18 7 -33 16 -33 20 0 4 -3 7 -7 7 -5 -1 -10 0 -13 1
-3 1 -12 3 -20 5 -48 10 -66 26 -84 72 -11 26 -30 71 -43 100 -12 28 -23 58
-23 65 0 8 -4 18 -9 24 -10 11 -87 197 -90 217 0 4 -8 21 -17 38 -14 28 -14
34 0 70 9 21 14 39 11 39 -2 0 0 12 6 28 27 68 37 180 26 267 -11 78 -101 140
-232 159 -22 3 -41 5 -42 6 -5 0 -41 85 -99 225 -20 50 -47 114 -60 143 -13
29 -24 56 -24 61 0 4 -7 22 -16 40 -12 25 -13 38 -4 65 6 18 12 43 15 55 2 11
6 25 9 30 20 32 24 207 5 243 -31 58 -101 92 -202 97 -24 1 -32 9 -53 59 -33
73 -36 82 -75 172 -17 41 -37 89 -45 105 -7 17 -28 66 -46 110 l-33 80 25 77
c32 97 31 94 37 148 14 119 0 187 -46 219 -35 25 -113 49 -179 55 -30 2 -55 6
-56 8 -5 6 -77 173 -79 183 -2 6 -7 17 -12 25 -5 8 -10 20 -11 25 -2 9 -24 60
-80 180 -12 28 -32 71 -43 96 l-19 47 21 43 c26 52 49 116 53 144 1 11 3 22 4
25 6 17 -4 79 -16 98 -19 29 -92 61 -153 68 -75 7 -89 13 -96 37 -4 12 -28 67
-55 122 -26 55 -53 117 -60 138 -8 20 -18 37 -22 37 -4 0 -8 4 -8 10 0 5 -16
45 -36 87 -20 43 -35 78 -34 78 1 0 -14 32 -34 71 l-37 71 50 74 c97 144 96
242 -3 266 -11 2 -64 7 -116 9 -52 3 -98 8 -102 12 -4 4 -43 77 -87 163 l-79
155 37 40 c55 59 77 94 94 150 14 47 14 54 0 74 -26 37 -86 52 -224 54 -70 1
-91 5 -108 20 -12 11 -21 25 -21 32 0 7 -3 14 -7 16 -5 2 -21 21 -38 43 -81
109 -153 165 -212 165 -32 0 -117 -41 -158 -76 -15 -13 -31 -24 -34 -24 -6 0
-62 -49 -142 -124 -25 -24 -76 -79 -113 -122 -37 -44 -78 -91 -92 -107 -13
-15 -24 -30 -24 -33 0 -3 -12 -24 -28 -47 -123 -188 -146 -361 -55 -436 33
-27 41 -29 102 -26 36 2 73 5 81 8 49 14 151 57 200 84 l44 25 -44 -48 c-24
-27 -47 -51 -50 -54 -5 -4 -50 -60 -108 -135 -5 -6 -25 -39 -44 -75 -58 -104
-71 -166 -53 -248 5 -20 76 -98 116 -127 39 -29 172 -71 189 -60 5 3 11 2 14
-3 4 -7 110 -7 216 -1 12 0 97 16 135 25 6 1 21 4 35 7 14 3 44 12 68 20 43
15 43 15 54 -11 6 -15 15 -36 19 -47 5 -11 11 -31 14 -44 2 -12 9 -29 16 -37
6 -8 8 -14 4 -14 -4 0 -2 -7 5 -15 7 -8 9 -15 6 -15 -4 0 -1 -12 7 -27 8 -16
40 -107 72 -203 31 -96 59 -182 62 -190 3 -8 7 -19 8 -25 0 -5 4 -17 7 -25 11
-26 48 -148 51 -167 1 -10 5 -22 8 -28 6 -10 22 -61 24 -80 1 -5 5 -17 8 -25
5 -13 13 -41 33 -120 2 -8 11 -40 20 -70 17 -58 49 -181 63 -240 26 -106 64
-257 69 -270 3 -8 7 -26 9 -40 2 -14 6 -32 10 -40 3 -8 7 -26 9 -40 2 -14 6
-36 10 -50 12 -41 12 -43 23 -95 6 -27 18 -81 26 -120 9 -38 18 -81 21 -95 2
-14 7 -36 10 -50 4 -14 8 -34 10 -45 1 -11 6 -31 9 -45 12 -49 19 -85 19 -107
1 -13 4 -23 7 -23 3 0 6 -6 6 -12 1 -22 14 -102 19 -109 2 -4 6 -22 9 -40 2
-19 7 -47 10 -64 17 -89 57 -304 60 -330 3 -16 7 -41 10 -55 3 -14 8 -41 11
-60 3 -19 7 -46 9 -60 4 -29 23 -143 29 -180 3 -14 10 -59 16 -100 6 -41 13
-84 15 -95 2 -11 6 -42 10 -70 3 -27 17 -128 31 -224 13 -96 27 -195 30 -220
3 -25 8 -62 10 -81 3 -19 7 -51 9 -70 2 -19 6 -53 9 -75 3 -22 7 -60 10 -85 2
-25 7 -70 11 -100 3 -30 8 -73 10 -95 3 -22 7 -60 9 -85 2 -25 7 -70 11 -100
3 -30 8 -86 10 -125 2 -38 5 -70 5 -70 1 0 3 -10 4 -22 2 -18 -9 -27 -63 -53
-90 -43 -125 -62 -131 -69 -3 -3 -23 -15 -45 -26 -22 -11 -42 -22 -45 -25 -3
-4 -23 -17 -45 -30 -113 -67 -315 -240 -315 -269 0 -6 -3 -11 -8 -11 -10 0
-34 -57 -38 -88 -3 -28 14 -71 36 -90 45 -38 132 -66 218 -71 21 -1 17 -6 -25
-38 -26 -20 -55 -45 -63 -55 -8 -11 -24 -32 -36 -46 -26 -33 -57 -92 -48 -92
4 0 1 -7 -6 -15 -7 -9 -14 -49 -15 -93 -2 -61 2 -86 18 -122 22 -47 68 -96 99
-106 10 -3 18 -10 18 -15 0 -5 6 -9 14 -9 7 0 39 -11 70 -25 31 -14 57 -24 59
-23 2 1 69 -12 87 -17 12 -3 139 -18 175 -21 22 -1 45 -3 51 -3 7 -1 10 -24 9
-63 -4 -102 -15 -230 -20 -239 -3 -4 -1 -11 5 -14 7 -4 7 -11 2 -18 -5 -7 -10
-32 -11 -57 -3 -46 -8 -95 -11 -95 -1 0 -3 -20 -5 -45 -3 -47 -12 -108 -20
-150 -3 -14 -8 -38 -11 -55 -2 -16 -7 -43 -11 -60 -3 -16 -6 -44 -8 -61 -1
-17 -5 -35 -7 -40 -3 -5 -9 -22 -12 -39 -19 -90 -21 -97 -41 -175 -19 -73 -74
-250 -83 -265 -4 -5 -8 -18 -9 -28 -2 -10 -10 -31 -18 -47 -15 -28 -14 -29 18
-38 34 -11 129 -36 137 -37 3 -1 14 -4 25 -8 11 -3 31 -8 45 -11 14 -3 59 -15
100 -26 41 -11 84 -22 95 -25 11 -2 20 -4 20 -5 0 -1 9 -3 20 -5 59 -12 76
-15 140 -30 39 -9 79 -18 90 -20 11 -2 54 -11 95 -20 41 -9 82 -18 90 -20 26
-4 94 -17 120 -21 14 -3 36 -7 50 -9 44 -8 194 -34 230 -39 19 -3 46 -8 60
-10 39 -7 90 -14 145 -21 28 -3 66 -7 85 -10 19 -3 75 -9 123 -15 48 -6 105
-12 125 -15 20 -2 69 -7 107 -10 39 -4 84 -8 100 -10 94 -11 298 -23 472 -29
68 -3 132 -8 143 -11 12 -4 20 -2 20 6 0 7 4 8 13 2 20 -15 730 -7 1012 12
134 9 218 15 265 20 25 3 72 7 105 9 33 2 85 7 115 10 30 4 73 9 95 11 22 3
63 8 90 11 28 4 61 8 75 9 83 9 143 17 158 19 20 4 142 23 192 31 19 2 46 7
59 9 12 3 42 7 65 10 22 3 72 12 111 20 38 8 73 12 77 10 4 -3 8 -1 8 5 0 5 8
8 18 7 9 -2 31 1 47 5 17 4 44 10 60 12 17 3 53 10 80 17 70 16 85 20 124 26
19 3 44 9 55 14 12 4 24 8 29 9 4 0 8 1 10 2 1 0 11 2 22 4 37 5 79 15 155 35
41 12 86 23 99 26 13 3 32 9 43 15 10 5 18 8 18 5 0 -3 15 0 33 5 17 6 41 12
52 15 29 7 38 10 55 17 16 7 104 30 107 28 2 0 23 8 48 19 25 11 49 21 53 22
9 4 7 41 -14 278 -48 551 -44 1552 11 2320 2 30 6 96 9 145 4 50 8 113 11 140
9 108 17 212 20 250 12 168 17 219 21 238 2 12 7 56 10 97 2 41 7 86 9 100 2
14 7 57 10 95 3 39 8 84 10 100 2 17 7 55 10 85 5 50 11 105 19 170 4 30 17
153 21 195 2 17 4 30 5 30 1 0 3 16 5 35 8 74 15 136 19 165 3 17 8 57 11 90
4 33 8 67 11 75 2 8 6 38 10 65 3 27 8 63 10 80 2 16 6 53 9 80 3 28 7 61 10
75 3 14 7 43 10 65 3 22 8 51 10 65 3 14 7 48 11 75 3 28 8 59 10 70 3 11 7
40 10 65 3 24 7 47 9 50 2 3 6 34 10 70 4 36 9 68 11 72 3 4 7 29 9 55 3 26 7
59 10 73 3 14 8 45 11 70 3 25 7 47 9 50 2 3 6 29 10 59 4 30 9 63 11 75 9 42
18 102 18 124 1 12 3 22 7 22 3 0 5 10 6 23 0 12 3 36 6 52 4 17 9 47 12 69 4
21 8 48 11 60 26 138 43 249 39 257 -4 5 -1 9 6 9 7 0 10 2 7 5 -3 3 0 34 8
68 7 34 15 80 18 102 4 23 9 52 12 65 8 36 21 101 28 135 5 31 10 55 26 140 6
28 12 61 14 75 3 14 5 25 6 25 1 0 4 14 6 30 2 17 9 50 14 75 5 25 12 56 14
70 3 14 8 36 11 50 24 112 32 156 28 163 -2 4 0 7 4 7 5 0 10 10 10 23 1 21
10 62 13 62 1 0 3 11 6 25 2 14 14 66 25 115 12 50 23 101 25 115 3 14 8 34
11 45 8 23 9 28 18 75 3 19 10 37 16 38 5 2 6 8 3 13 -3 6 4 40 15 77 18 59
27 71 68 101 74 53 169 157 221 240 26 42 47 78 47 81 1 3 11 25 24 49 52 100
94 234 97 313 3 74 -19 189 -38 196 -4 2 -8 10 -8 18 0 19 -68 124 -80 124 -6
0 -10 5 -10 11 0 39 -236 231 -366 297 l-41 21 -36 -77z"/>
<path d="M2416 1612 c-4 -3 -48 -10 -86 -13 -8 -1 -31 -5 -50 -9 -19 -5 -51
-11 -70 -14 -19 -3 -46 -8 -60 -11 -14 -3 -40 -8 -59 -11 -19 -3 -45 -10 -59
-15 -13 -5 -27 -7 -32 -4 -5 3 -11 1 -14 -4 -3 -5 -23 -12 -43 -15 -97 -18
-354 -108 -411 -144 -13 -9 -36 -23 -52 -31 -94 -54 -136 -123 -129 -216 3
-28 50 -94 96 -132 21 -18 52 -44 68 -58 17 -14 35 -25 42 -25 6 0 13 -4 15
-8 5 -13 243 -125 266 -125 6 0 12 -4 12 -9 0 -5 4 -7 10 -3 5 3 17 2 27 -4
20 -10 122 -40 159 -47 13 -2 35 -9 50 -14 15 -6 29 -9 31 -6 3 2 23 -2 45
-10 21 -7 42 -13 46 -13 4 1 9 0 12 -1 3 -1 14 -3 25 -5 11 -1 43 -6 70 -10
28 -4 53 -9 56 -11 3 -1 28 -6 56 -9 27 -3 60 -7 72 -10 34 -6 129 -17 181
-21 25 -1 45 -3 45 -4 0 -4 134 -15 315 -26 343 -21 1040 -21 1370 1 104 6
258 15 355 20 80 4 137 9 240 20 17 2 48 4 69 4 46 1 40 15 -7 18 -184 9 -279
14 -315 19 -23 2 -79 7 -125 10 -87 6 -145 10 -242 20 -33 3 -80 7 -105 8 -25
2 -45 4 -45 5 0 1 -34 4 -74 6 -41 3 -79 9 -84 14 -6 6 -19 6 -32 1 -13 -5
-25 -7 -28 -4 -2 2 -44 9 -93 14 -82 9 -114 13 -199 25 -35 4 -117 14 -160 20
-16 1 -46 6 -65 9 -19 3 -55 8 -80 11 -51 7 -83 12 -120 18 -14 3 -47 8 -75
12 -27 4 -53 9 -56 11 -4 2 -24 6 -45 9 -22 3 -50 8 -64 12 -14 3 -34 7 -45 8
-25 3 -147 31 -245 57 -41 11 -79 21 -85 23 -31 7 -71 19 -80 24 -5 3 -19 7
-29 8 -10 2 -40 13 -65 24 -25 12 -50 22 -56 23 -46 12 -151 77 -206 128 -152
140 -135 269 51 389 52 33 107 62 122 63 14 2 17 13 3 13 -8 0 -17 -2 -19 -5z"/>
<path d="M9081 1519 c88 -62 131 -122 134 -186 5 -88 -65 -169 -218 -256 -50
-29 -93 -52 -96 -53 -3 0 -26 -9 -51 -20 -46 -21 -111 -48 -120 -50 -5 -1 -34
-11 -65 -24 -50 -20 -116 -41 -141 -46 -15 -3 -32 -8 -38 -12 -6 -3 -15 -7
-21 -8 -5 -1 -61 -16 -123 -34 -62 -18 -121 -33 -130 -35 -9 -2 -19 -4 -22 -6
-3 -1 -9 -3 -15 -4 -5 -2 -12 -4 -15 -5 -3 -1 -14 -3 -25 -5 -11 -2 -50 -11
-85 -20 -36 -9 -78 -18 -95 -21 -16 -3 -48 -10 -70 -16 -53 -15 -48 -14 -160
-33 -52 -9 -69 -13 -72 -15 -2 -2 -12 -4 -23 -5 -11 -1 -21 -3 -22 -4 -2 -1
-18 -4 -37 -7 -101 -13 -119 -24 -31 -19 147 8 279 17 325 20 101 9 191 17
230 21 22 3 60 7 85 9 96 9 165 18 310 41 52 8 111 17 130 20 19 2 49 7 65 11
39 9 33 8 90 18 28 4 55 10 60 11 24 7 61 15 80 18 11 2 49 11 85 21 133 34
145 37 155 39 6 1 15 4 20 7 6 4 44 16 85 28 41 12 84 26 95 31 11 4 36 14 55
22 55 20 214 103 250 129 79 58 113 106 116 165 3 53 -33 100 -112 144 -89 52
-275 109 -439 136 -16 3 -54 9 -84 14 -30 6 -66 10 -79 10 -22 0 -20 -3 19
-31z"/>
<path d="M5130 630 c0 -5 5 -10 11 -10 5 0 7 5 4 10 -3 6 -8 10 -11 10 -2 0
-4 -4 -4 -10z"/>
<path d="M5698 315 c-2 -2 -20 -6 -42 -9 -21 -4 -41 -8 -45 -10 -3 -2 -28 -6
-56 -10 -27 -3 -61 -8 -75 -11 -14 -2 -43 -7 -65 -10 -22 -3 -60 -8 -85 -12
-25 -4 -57 -7 -72 -7 -16 -1 -28 -3 -28 -6 0 -3 -12 -6 -27 -6 -16 -1 -50 -4
-78 -7 -27 -3 -75 -9 -105 -12 -95 -10 -134 -15 -160 -19 -14 -3 -63 -7 -109
-11 -47 -3 -98 -8 -115 -10 -17 -3 -65 -8 -106 -11 -41 -2 -95 -7 -120 -9
-150 -12 -335 -25 -417 -28 -53 -2 -48 -12 9 -16 23 -1 45 -5 48 -9 3 -4 19
-7 35 -8 17 0 59 -4 95 -8 36 -4 83 -10 105 -12 22 -2 49 -6 60 -8 12 -3 59
-8 105 -12 99 -8 135 -11 135 -14 0 -1 33 -3 73 -5 40 -2 96 -7 125 -9 145
-15 336 -20 677 -20 342 0 484 4 670 20 36 2 88 7 115 9 28 2 68 6 90 9 22 3
67 8 100 11 80 9 114 13 150 19 17 2 50 7 75 11 66 10 82 12 110 19 14 3 42 8
62 10 20 2 44 8 52 13 8 4 -70 8 -177 7 -106 0 -196 2 -201 5 -6 2 -30 6 -55
7 -53 3 -122 12 -154 19 -12 3 -35 7 -52 9 -16 3 -42 7 -57 10 -16 3 -38 8
-50 11 -13 2 -41 9 -63 15 -22 6 -57 15 -77 21 -41 10 -95 29 -173 62 -43 17
-118 30 -127 22z"/>
</g>
</svg>
