<svg xmlns="http://www.w3.org/2000/svg" xmlns:xlink="http://www.w3.org/1999/xlink" viewBox="0 0 230.7586 272.855">
  <defs>
    <style>
      .cls-1 {
        fill: none;
      }

      .cls-2 {
        fill: #3ba23f;
      }

      .cls-3 {
        fill: #fcfcfc;
      }

      .cls-4 {
        clip-path: url(#clip-path);
      }

      .cls-5 {
        clip-path: url(#clip-path-2);
      }
    </style>
    <clipPath id="clip-path">
      <path class="cls-1" d="M60.9773,175s-1.2-3.7-3.5-4.6c-1.3-.5-14.8,4.1-14.6,7.7C42.9773,180.8,58.2773,176.9,60.9773,175Z"/>
    </clipPath>
    <clipPath id="clip-path-2">
      <path class="cls-1" d="M61.6773,187.3c1-.7,1.2-6.6.4-7.3-1-1-18.1,4.2-17.7,8.1C44.6773,191.2,56.2773,190.8,61.6773,187.3Z"/>
    </clipPath>
  </defs>
  <title>Favicon</title>
  <g id="Calque_2" data-name="Calque 2">
    <g id="Total">
      <g id="Favicon">
        <g id="total-2" data-name="total">
          <g>
            <path class="cls-2" d="M50.8773,166.9s-5-69.4-25.8-124.1c0,0-14.7,5.4-20-2.3-3.5-5,7.3-15,7.3-15s-11.2,7.3-12.3,0c-1.2-7.3,11.9-20,16.6-21.6,4.6-1.5,12.3,3.5,72.5,150.7,0,0,8.5,24.3-14.3,47.4,0,0,49,11.2,81.7-23.9,0,0,40.5-136.8,60.5-178.1,0,0,17,8.1,13.1,19.7s-8.9,13.5-10.4,15-28.9,123.4-20.8,202.4c0,0-71.7,25.8-155.7,1.5,0,0,6.2-13.1,6.9-37,0,0-13.9,0-15-6.6-1.2-6.6,5.4-10.4,5.4-10.4s-6.2,0-6.9-3.1C32.4773,177.2,43.9773,170,50.8773,166.9Z"/>
            <path class="cls-2" d="M40.4773,232.4s-15,5-3.5,13.1c11.6,8.1,61.7,11.2,71.7,11.6,0,0-76.7,8.1-94.4-9.6C3.8773,237,40.4773,232.4,40.4773,232.4Z"/>
            <path class="cls-2" d="M164.6773,257.1s62.1-10,39.7-23.1c0,0,18.9,1.9,18.9,7.7S203.1773,255.6,164.6773,257.1Z"/>
            <path class="cls-2" d="M76.7773,269.8s26.9-1.3,45.9-5c0,0,10.4,5.8,29.7,4.6C152.2773,269.4,122.5773,276.9,76.7773,269.8Z"/>
            <g>
              <path class="cls-2" d="M23.5773,10.8s8.1-.8,9.3,1.2c.9,1.5-1.2,5-4.2,7.3Z"/>
              <path class="cls-2" d="M31.5773,27s8.1-1,9.3,1.1c.9,1.7-1,5.7-4.1,8.4Z"/>
              <path class="cls-2" d="M43.4773,51.6s6.9-.3,8.1,2.2c.9,1.9-.6,6.1-3.1,9.3Z"/>
              <path class="cls-2" d="M54.1773,75.4s7.1-.7,8.5,2.4c1.1,2.3,0,7.9-2.3,12Z"/>
              <path class="cls-2" d="M64.1773,100.9s7.1-.7,8.5,2.4c1.1,2.3,0,7.9-2.3,12Z"/>
              <path class="cls-2" d="M73.4773,124.8s8.4-.4,10.1,3.2c1.3,2.8,0,9-2.7,13.9Z"/>
              <path class="cls-2" d="M83.8773,150.9s9.1.7,10.4,4.8c1,3.2-1.3,9.6-4.8,14.5Z"/>
              <path class="cls-2" d="M209.8773,18.5s-6.4-4.7-5.6-6.8c.6-1.6,3.9-2.1,9.1-2.4Z"/>
              <path class="cls-2" d="M204.4773,34.3s-6-5.5-5.2-7.6c.6-1.6,3.5-2.5,8.8-2.7Z"/>
              <path class="cls-2" d="M195.7773,55.6s-4.5-6.8-3.3-9.2c.9-1.9,4.8-2.6,8.8-2.6Z"/>
              <path class="cls-2" d="M189.5773,78.5s-5.2-6.3-4.2-8.8c.7-1.9,4.5-3,8.4-3.5Z"/>
              <path class="cls-2" d="M184.2773,89.5s-6.1,1.5-7.1,4.7c-1,3.3,2.4,10.2,2.3,10.1Z"/>
              <path class="cls-2" d="M177.4773,114.2s-7.4.4-8.6,3.7c-.9,2.5.8,7.9,3.6,11.9Z"/>
              <path class="cls-2" d="M169.3773,141s-9,1.2-10.1,5.4c-.8,3.2,1.8,9.5,5.6,14.2Z"/>
              <path class="cls-2" d="M162.3773,173.4s-8.2-2.3-10.7,1c-1.9,2.5-1.9,8.9-.3,14.3Z"/>
            </g>
          </g>
        </g>
        <g id="yeux">
          <g>
            <path id="_Masque_3" data-name=" Masque 3" class="cls-3" d="M60.9773,175s-1.2-3.7-3.5-4.6c-1.3-.5-14.8,4.1-14.6,7.7C42.9773,180.8,58.2773,176.9,60.9773,175Z"/>
            <g class="cls-4">
              <ellipse cx="54.0519" cy="176.3147" rx="8" ry="2.5" transform="translate(-46.8204 21.9344) rotate(-16.117)"/>
            </g>
          </g>
          <g>
            <path id="_Masque_4" data-name=" Masque 4" class="cls-3" d="M61.6773,187.3c1-.7,1.2-6.6.4-7.3-1-1-18.1,4.2-17.7,8.1C44.6773,191.2,56.2773,190.8,61.6773,187.3Z"/>
            <g class="cls-5">
              <ellipse cx="56.7542" cy="187.4202" rx="8.5" ry="2.6" transform="translate(-50.2075 23.388) rotate(-16.2602)"/>
            </g>
          </g>
        </g>
      </g>
    </g>
  </g>
</svg>
