<svg xmlns="http://www.w3.org/2000/svg" viewBox="0 0 401.8969 401.8969">
  <defs>
    <style>
      .cls-1 {
        fill: #fff;
      }

      .cls-2, .cls-3, .cls-4 {
        fill: none;
        stroke-miterlimit: 10;
      }

      .cls-2, .cls-3, .cls-4, .cls-5 {
        stroke: #c91f3b;
      }

      .cls-2 {
        stroke-width: 10.0969px;
      }

      .cls-3 {
        stroke-width: 2.7537px;
      }

      .cls-4 {
        stroke-width: 5.5074px;
      }

      .cls-5, .cls-6 {
        fill: #c91f3b;
      }

      .cls-5 {
        stroke-linecap: round;
        stroke-linejoin: round;
        stroke-width: 2.2565px;
      }

      .cls-7 {
        isolation: isolate;
      }
    </style>
  </defs>
  <title>Tampon_sansloup</title>
  <g id="Calque_2" data-name="Calque 2">
    <g id="Total">
      <g id="Tampon_sansloup">
        <g>
          <circle class="cls-1" cx="202.2485" cy="200.9484" r="195.9"/>
          <circle class="cls-2" cx="200.9485" cy="200.9484" r="195.9"/>
          <circle class="cls-3" cx="200.5484" cy="201.5484" r="180.1"/>
          <circle class="cls-4" cx="201.7485" cy="202.8484" r="133.2"/>
          <g>
            <polygon class="cls-5" points="59.549 129.148 61.348 140.348 71.549 145.148 61.448 150.348 60.049 161.548 52.049 153.548 40.948 155.648 46.049 145.548 40.648 135.648 51.749 137.448 59.549 129.148"/>
            <polygon class="cls-5" points="45.549 170.148 49.948 180.548 60.948 182.848 52.448 190.248 53.648 201.548 43.948 195.648 33.648 200.248 36.249 189.248 28.648 180.848 39.948 179.948 45.549 170.148"/>
            <polygon class="cls-5" points="43.448 214.048 49.948 223.348 61.249 223.248 54.448 232.248 58.049 242.948 47.348 239.248 38.249 246.048 38.448 234.748 29.249 228.148 40.049 224.848 43.448 214.048"/>
          </g>
          <g>
            <polygon class="cls-5" points="342.649 129.148 340.848 140.348 330.649 145.148 340.749 150.348 342.149 161.548 350.149 153.548 361.348 155.648 356.149 145.548 361.649 135.648 350.448 137.448 342.649 129.148"/>
            <polygon class="cls-5" points="356.649 170.148 352.249 180.548 341.249 182.848 349.749 190.248 348.548 201.548 358.249 195.648 368.548 200.248 365.948 189.248 373.548 180.848 362.249 179.948 356.649 170.148"/>
            <polygon class="cls-5" points="358.749 214.048 352.249 223.348 340.948 223.248 347.749 232.248 344.149 242.948 354.848 239.248 363.948 246.048 363.749 234.748 372.948 228.148 362.149 224.848 358.749 214.048"/>
          </g>
          <g>
            <path class="cls-6" d="M165.14,56.4418a10.9479,10.9479,0,0,1-.0928,3.97,4.9557,4.9557,0,0,1-1.4414,2.56,6.5574,6.5574,0,0,1-2.6846,1.4053,4.9127,4.9127,0,0,1-3.0137-.0244,5.8256,5.8256,0,0,1-2.5137-1.8428,14.0669,14.0669,0,0,1-2.0742-3.5586,36.67,36.67,0,0,1-1.6924-5.168q-.3809-1.4854-.67-3.0312a29.03,29.03,0,0,1-.4111-3.0508,16.8113,16.8113,0,0,1,.0068-2.8848A8.8483,8.8483,0,0,1,151.14,42.3a5.8211,5.8211,0,0,1,1.3047-1.9746,5.1261,5.1261,0,0,1,2.1484-1.2363,4.6363,4.6363,0,0,1,4.2334.53,8.5254,8.5254,0,0,1,2.8535,4.7021l-3.2139.9a13.0331,13.0331,0,0,0-.7637-1.7148,3.38,3.38,0,0,0-.6982-.92,1.134,1.134,0,0,0-.6865-.3027,2.426,2.426,0,0,0-.7334.0986,2.3614,2.3614,0,0,0-1.5928,1.5771,8.2469,8.2469,0,0,0-.4014,2.8008,18.1025,18.1025,0,0,0,.3477,3.2627q.3267,1.6787.6514,2.9668a33.6888,33.6888,0,0,0,1.168,3.6689,14.4439,14.4439,0,0,0,1.3389,2.7031A5.3394,5.3394,0,0,0,158.56,60.934a1.8235,1.8235,0,0,0,1.5449.2754,2.9841,2.9841,0,0,0,1.1279-.5811,2.2692,2.2692,0,0,0,.6885-1.1475,5.4516,5.4516,0,0,0,.1211-1.9082,15.6359,15.6359,0,0,0-.5625-2.832l-2.82.7891-.8359-2.9854,5.9707-1.6689A31.9022,31.9022,0,0,1,165.14,56.4418Z"/>
            <path class="cls-6" d="M181.5155,60.0082l-3.2549.57-3.0674-7.4512-4.6309.8105-.3535,8.0508-3.2549.5693,1.1992-26.5264,3.2217-.5645Zm-10.8242-9.4824,3.1875-.5586L171.04,43.0307Z"/>
            <path class="cls-6" d="M183.27,59.8842l-1.78-25.7588q1.0166-.1055,2.0527-.1758t2.0439-.09a15.0783,15.0783,0,0,1,1.8828.0742,8.9259,8.9259,0,0,1,1.5391.2861,6.1931,6.1931,0,0,1,2.1406,1.0811,6.03,6.03,0,0,1,1.3711,1.5615,7.0782,7.0782,0,0,1,.7764,1.8408,13.1846,13.1846,0,0,1,.3564,1.957,9.4385,9.4385,0,0,1-.1006,2.499,8.3306,8.3306,0,0,1-.7891,2.3936,7.0191,7.0191,0,0,1-1.5527,2.001,6.666,6.666,0,0,1-2.416,1.3633l6.2344,10.1533-3.67.2539-5.7109-9.5068.6816,9.8545Zm7.0186-18.9912a6.2136,6.2136,0,0,0-.4746-1.6748,3.1757,3.1757,0,0,0-1.0088-1.2617,4.1186,4.1186,0,0,0-1.6533-.7061,6.9977,6.9977,0,0,0-2.373-.0068l.61,8.835a6.2927,6.2927,0,0,0,2.4014-.3359,3.8,3.8,0,0,0,1.5977-1.084,3.9031,3.9031,0,0,0,.8223-1.6787A5.89,5.89,0,0,0,190.2889,40.893Z"/>
            <path class="cls-6" d="M209.8163,59.19l-3.3037-.0332-1.6562-7.8857-4.7-.0479-1.8184,7.8506-3.3027-.0352,6.0215-25.86,3.27.0332ZM200.9051,47.892l3.2373.0342-1.5264-7.34Z"/>
            <path class="cls-6" d="M216.9139,40.4174,214.81,59.6156l-3.1484-.3447,2.8242-25.7676,3.52.3857,6.5371,19.1523L226.54,34.8246l3.2168.3525-2.8242,25.7676-3.2168-.3535Z"/>
            <path class="cls-6" d="M233.2313,62.2484l4.6855-22.0234-4.6318-.9844.7012-3.2979,12.627,2.6855-.7012,3.2979-4.6309-.9863-4.6846,22.0234Z"/>
            <path class="cls-6" d="M242.7128,64.3871l.98-3.1914,3.2559,1.001,5.6318-18.332-3.2559-1.001.9893-3.2236,9.8018,3.0117-.9912,3.2236-3.2559-1-5.6318,18.3311,3.2559,1-.9785,3.19Z"/>
          </g>
          <g class="cls-7">
            <path class="cls-6" d="M179.9315,105.55a4.9634,4.9634,0,0,0-.1367-1.3789,4.59,4.59,0,0,0-.5273-1.3291,3.2323,3.2323,0,0,0-.9541-1.0039,2.4908,2.4908,0,0,0-1.4473-.4092,1.823,1.823,0,0,0-1.0732.3232,2.6139,2.6139,0,0,0-.75.8174,4.4792,4.4792,0,0,0-.4424,1.0391,3.583,3.583,0,0,0-.1533.9541,3.7388,3.7388,0,0,0,.8691,2.2646,7.02,7.02,0,0,0,2.333,1.9248,16.75,16.75,0,0,1,3.1,2.1123,10.267,10.267,0,0,1,1.9414,2.248,7.3456,7.3456,0,0,1,.9707,2.4521,11.2669,11.2669,0,0,1,.1875,2.7256,6.4477,6.4477,0,0,1-1.7031,4.4277,5.6619,5.6619,0,0,1-4.1895,1.5674,6.4459,6.4459,0,0,1-2.793-.5967,5.9937,5.9937,0,0,1-2.1465-1.7031,7.6562,7.6562,0,0,1-1.3457-2.708,11.6173,11.6173,0,0,1-.3916-3.61h3.4746a7.5053,7.5053,0,0,0,.6133,3.832,2.6317,2.6317,0,0,0,2.5547,1.4814,2.3672,2.3672,0,0,0,1.1924-.2725,2.5382,2.5382,0,0,0,.7832-.6807,2.7137,2.7137,0,0,0,.4424-.8857,3.3508,3.3508,0,0,0,.1367-.92,5.732,5.732,0,0,0-1.0732-3.5088,10.1234,10.1234,0,0,0-3.3887-2.9629q-4.9395-2.8271-4.9395-7.3574a8.0285,8.0285,0,0,1,.3916-2.5889,5.68,5.68,0,0,1,1.1582-2.01,5.0982,5.0982,0,0,1,1.8906-1.3115,6.8892,6.8892,0,0,1,2.623-.46,5.9691,5.9691,0,0,1,2.4688.5107,5.607,5.607,0,0,1,1.9756,1.4814,6.6676,6.6676,0,0,1,1.2773,2.3682,9.8471,9.8471,0,0,1,.4092,3.167Z"/>
            <path class="cls-6" d="M199.3807,124.1488H196.077l-1.7373-7.8682h-4.7l-1.7373,7.8682h-3.3047l5.7568-25.9219h3.2705Zm-9.0264-11.207h3.2363l-1.6016-7.3232Z"/>
            <path class="cls-6" d="M204.9676,104.8353v19.3135H201.8V98.2269h3.542l8.584,18.3262V98.2269h3.2363v25.9219h-3.2363Z"/>
            <path class="cls-6" d="M228.5389,105.55a4.9634,4.9634,0,0,0-.1367-1.3789,4.59,4.59,0,0,0-.5273-1.3291,3.2323,3.2323,0,0,0-.9541-1.0039,2.4908,2.4908,0,0,0-1.4473-.4092,1.823,1.823,0,0,0-1.0732.3232,2.6139,2.6139,0,0,0-.75.8174,4.4792,4.4792,0,0,0-.4424,1.0391,3.583,3.583,0,0,0-.1533.9541,3.7388,3.7388,0,0,0,.8691,2.2646,7.02,7.02,0,0,0,2.333,1.9248,16.75,16.75,0,0,1,3.1,2.1123,10.267,10.267,0,0,1,1.9414,2.248,7.3456,7.3456,0,0,1,.9707,2.4521,11.2669,11.2669,0,0,1,.1875,2.7256,6.4477,6.4477,0,0,1-1.7031,4.4277,5.6619,5.6619,0,0,1-4.1895,1.5674,6.4459,6.4459,0,0,1-2.793-.5967,5.9937,5.9937,0,0,1-2.1465-1.7031,7.6562,7.6562,0,0,1-1.3457-2.708,11.6173,11.6173,0,0,1-.3916-3.61h3.4746a7.5053,7.5053,0,0,0,.6133,3.832,2.6317,2.6317,0,0,0,2.5547,1.4814,2.3672,2.3672,0,0,0,1.1924-.2725,2.5382,2.5382,0,0,0,.7832-.6807,2.7137,2.7137,0,0,0,.4424-.8857,3.3508,3.3508,0,0,0,.1367-.92,5.732,5.732,0,0,0-1.0732-3.5088,10.1234,10.1234,0,0,0-3.3887-2.9629q-4.9395-2.8271-4.9395-7.3574a8.0285,8.0285,0,0,1,.3916-2.5889,5.68,5.68,0,0,1,1.1582-2.01,5.0982,5.0982,0,0,1,1.8906-1.3115,6.8892,6.8892,0,0,1,2.623-.46,5.9691,5.9691,0,0,1,2.4688.5107,5.607,5.607,0,0,1,1.9756,1.4814,6.6676,6.6676,0,0,1,1.2773,2.3682,9.8471,9.8471,0,0,1,.4092,3.167Z"/>
          </g>
          <path class="cls-1" d="M77.2485,180.1485s-11-14-11.7-16.6,11.9-6.6,25.5-6.6Z"/>
          <path class="cls-6" d="M85.5485,267.9484s20.1-2.5,35.2-21.8c0,0-14.2,4.5-26.6-1,0,0,9.6-28.9,10.1-43.1,0,0-27-27.3-35.7-38.4,0,0,28.8-9.4,66-1,0,0,9.2-3.2,15.1-5.1,0,0-8.3-17.4-8.3-30.3,0,0,28.5,8.2,67.4,48.8,8.3,8.7,73.3-43,81.6-47.6,2.2-1.2,5.3.4,6.1,1.4,2.4,3.2,12.8,19.9,4.2,42.8,0,0,4.9.9,10.9-3.9,0,0-3.7,7.5,3.4,9.2,0,0-11.4,11.2-14.1,15.7-.9,1.5.1,18.7-10.6,25.2-3.9,2.4-64,4.7-89.2,23.6-18.4,13.8-31.6,70.2-32.2,88.1C169.0485,330.4484,120.0485,324.2484,85.5485,267.9484Z"/>
          <path class="cls-1" d="M262.5485,153.0484s22.1-17.6,28.5-20.4c5.7-2.5,12.6,15.8,6.9,22.3C291.7485,162.0484,264.3485,156.8484,262.5485,153.0484Z"/>
          <path class="cls-1" d="M138.9485,204.8484s26.9-8.2,37.9-8.1c0,0-10.6-14-25.6-13.1C136.2485,184.6485,134.0485,199.2484,138.9485,204.8484Z"/>
          <path class="cls-1" d="M129.7485,183.9484s7.5-11.6,16-14.3a12.3212,12.3212,0,0,0-8.3-2.3C132.6485,167.8484,126.7485,179.2484,129.7485,183.9484Z"/>
          <path class="cls-1" d="M200.9485,179.8484s-5.9,2.8-12.6,11.4c0,0-5.3-9.6-4.7-17.1C184.5485,163.3484,196.4485,171.9484,200.9485,179.8484Z"/>
          <path class="cls-1" d="M180.5485,157.3484s-13-4.3-21.4-1.2a12.391,12.391,0,0,1,5-6.9C168.1484,146.6483,179.8485,151.8484,180.5485,157.3484Z"/>
          <ellipse class="cls-6" cx="158.3422" cy="186.8398" rx="5.4003" ry="8.8004" transform="translate(-40.2814 330.1227) rotate(-85.5254)"/>
          <ellipse class="cls-6" cx="184.1794" cy="174.948" rx="5.9002" ry="4.9002" transform="translate(-49.346 274.9218) rotate(-66.7036)"/>
        </g>
        <g>
          <path class="cls-6" d="M178.3758,341.5492l-5.459,28.4854,8.418,1.6123-.82,4.2754-12.8184-2.457,6.2773-32.76Z"/>
          <path class="cls-6" d="M203.4032,361.0473a37.5353,37.5353,0,0,1-.9453,6.28,18.6743,18.6743,0,0,1-1.9375,5.0166,9.4155,9.4155,0,0,1-3.0254,3.27,7.1817,7.1817,0,0,1-4.2109,1.0762,7.2715,7.2715,0,0,1-6.5449-4.3828q-2.1094-4.1982-1.7285-12.1875a37.9052,37.9052,0,0,1,.76-5.9561,21.5234,21.5234,0,0,1,1.84-5.417,11.7362,11.7362,0,0,1,3.1133-3.9238,7.0189,7.0189,0,0,1,4.5313-1.5293,5.9182,5.9182,0,0,1,3.3125.9395,7.7677,7.7677,0,0,1,2.2988,2.4238,13.331,13.331,0,0,1,1.4531,3.4316,29.7883,29.7883,0,0,1,.8008,3.8945,35.9923,35.9923,0,0,1,.32,3.8125Q203.49,359.6439,203.4032,361.0473Zm-4.5176-.3164a41.1274,41.1274,0,0,0-.0586-5.168,20.756,20.756,0,0,0-.6855-4.0664,8.1945,8.1945,0,0,0-1.2344-2.6777,2.0958,2.0958,0,0,0-1.707-.9551,3.3136,3.3136,0,0,0-2.6562,1.28,10.2229,10.2229,0,0,0-1.75,3.1982,22.34,22.34,0,0,0-1.0059,4.08q-.334,2.165-.43,3.877a23.122,23.122,0,0,0,.8711,8.6445q1.1309,3.1582,3.24,3.2676a3.103,3.103,0,0,0,2.0879-.7246,6.104,6.104,0,0,0,1.6328-2.2578,16.4057,16.4057,0,0,0,1.1035-3.6367A38.4173,38.4173,0,0,0,198.8856,360.7309Z"/>
          <path class="cls-6" d="M215.954,371.933a2.1755,2.1755,0,0,0,1.8105-.9736,6.98,6.98,0,0,0,1.0176-2.3555,15.4133,15.4133,0,0,0,.42-3.0859q.07-1.6787.0625-3.1738-.05-4.9307-.5078-9.7227-.46-4.7915-.8379-10.0527l4.166-.2637q.2109,2.6279.4277,5.3438.22,2.7188.4043,5.3027.1846,2.5869.3164,4.9785.1289,2.3921.17,4.4141.0586,2.3291-.0957,4.7168a15.6683,15.6683,0,0,1-.8691,4.35,7.8211,7.8211,0,0,1-2.1914,3.2656,6.8607,6.8607,0,0,1-4.1094,1.5156,6.2567,6.2567,0,0,1-3.98-.957,7.8621,7.8621,0,0,1-2.4492-2.8613,15.21,15.21,0,0,1-1.3809-4.0518q-.4512-2.26-.73-4.5771-.5068-4.5029-.7715-9.7031-.2637-5.2031-.5273-10.7344l4.166-.2637q.1875,5.0068.416,10.0137.2285,5.0039.8223,10.1631.1377,1.4443.4336,2.9893a16.26,16.26,0,0,0,.7949,2.832,6.7244,6.7244,0,0,0,1.2363,2.1016A2.2439,2.2439,0,0,0,215.954,371.933Z"/>
          <path class="cls-6" d="M229.2567,374.99l-5.8613-32.792a22.6279,22.6279,0,0,1,6.74-1.002,11.07,11.07,0,0,1,4.748,1.0918,7.4685,7.4685,0,0,1,2.9922,2.7461,11.3674,11.3674,0,0,1,1.4648,3.957,11.6081,11.6081,0,0,1,.0684,3.3809,10.1794,10.1794,0,0,1-1.1426,3.5977,10.9731,10.9731,0,0,1-2.7187,3.2754,12.9681,12.9681,0,0,1-4.6641,2.373l2.2656,12.6758Zm5.8008-25.2334a6.5254,6.5254,0,0,0-.7207-2.0352,4.7608,4.7608,0,0,0-1.3984-1.582,4.9383,4.9383,0,0,0-2.09-.83,6.847,6.847,0,0,0-2.8418.2168l2.02,11.291a7.3365,7.3365,0,0,0,2.6895-1.0605A5.81,5.81,0,0,0,234.36,354.1a5.0819,5.0819,0,0,0,.75-2.0537A7.2323,7.2323,0,0,0,235.0575,349.7562Z"/>
        </g>
      </g>
    </g>
  </g>
</svg>
