<svg xmlns="http://www.w3.org/2000/svg" xmlns:xlink="http://www.w3.org/1999/xlink" viewBox="0 0 387.6798 463.7821">
  <defs>
    <style>
      .cls-1 {
        fill: none;
      }

      .cls-2 {
        fill: #3ba23f;
      }

      .cls-3 {
        fill: #fcfcfc;
      }

      .cls-4 {
        clip-path: url(#clip-path);
      }

      .cls-5 {
        clip-path: url(#clip-path-2);
      }
    </style>
    <clipPath id="clip-path">
      <path class="cls-1" d="M102.4158,299.3s-2.1-6.2-5.8-7.8c-2.1-.9-24.9,6.9-24.6,13C72.2158,309,97.9158,302.5,102.4158,299.3Z"/>
    </clipPath>
    <clipPath id="clip-path-2">
      <path class="cls-1" d="M103.7158,320c1.7-1.1,1.9-11,.6-12.3-1.6-1.6-30.4,7.1-29.8,13.6C75.1158,326.5,94.7158,325.8,103.7158,320Z"/>
    </clipPath>
  </defs>
  <title>Logo_lescrocos</title>
  <g id="Calque_2" data-name="Calque 2">
    <g id="Total">
      <g id="Logo_lescrocos">
        <g id="total-2" data-name="total">
          <g>
            <path class="cls-2" d="M85.6158,285.7s-8.4-116.6-43.4-208.5c0,0-24.7,9-33.7-3.9-5.8-8.4,12.3-25.3,12.3-25.3s-18.8,12.3-20.7,0,20.1-33.7,27.8-36.3c7.8-2.6,20.7,5.8,121.8,253.2,0,0,14.2,40.8-24,79.7,0,0,82.3,18.8,137.3-40.2,0,0,68-229.9,101.7-299.2,0,0,28.5,13.6,22,33s-14.9,22.7-17.5,25.3-48.6,207.3-35,340c0,0-120.5,43.4-261.7,2.6,0,0,10.4-22,11.7-62.2,0,0-23.3,0-25.3-11s9.1-17.5,9.1-17.5-10.4,0-11.7-5.2C54.7158,303,74.0158,290.9,85.6158,285.7Z"/>
            <path class="cls-2" d="M68.1158,395.8s-25.3,8.4-5.8,22,103.6,18.8,120.5,19.4c0,0-128.9,13.6-158.7-16.2C6.6158,403.6,68.1158,395.8,68.1158,395.8Z"/>
            <path class="cls-2" d="M276.7158,437.2s104.3-16.8,66.7-38.9c0,0,31.7,3.2,31.7,13C375.1158,421,341.4158,434.6,276.7158,437.2Z"/>
            <path class="cls-2" d="M129.0158,458.6s45.2-2.3,77.1-8.4c0,0,17.5,9.7,49.9,7.8C255.9158,458,205.9158,470.6,129.0158,458.6Z"/>
            <g>
              <path class="cls-2" d="M39.6158,23.4s13.6-1.3,15.5,1.9c1.5,2.5-1.9,8.4-7.1,12.3Z"/>
              <path class="cls-2" d="M53.0158,50.7s13.6-1.7,15.6,1.9c1.6,2.8-1.7,9.6-6.9,14.1Z"/>
              <path class="cls-2" d="M73.0158,92s11.6-.5,13.5,3.6c1.5,3.1-1,10.3-5.2,15.5Z"/>
              <path class="cls-2" d="M91.1158,132s11.9-1.2,14.2,4c1.8,3.9-.1,13.2-3.8,20.1Z"/>
              <path class="cls-2" d="M108.0158,174.7s11.9-1.2,14.2,4c1.8,3.9-.1,13.2-3.8,20.1Z"/>
              <path class="cls-2" d="M123.5158,214.9s14.2-.7,17,5.4c2.2,4.7-.1,15.1-4.5,23.4Z"/>
              <path class="cls-2" d="M141.1158,258.7s15.3,1.2,17.5,8.1c1.7,5.3-2.1,16.1-8.1,24.4Z"/>
              <path class="cls-2" d="M352.7158,36.4s-10.8-7.9-9.4-11.5c1-2.7,6.5-3.5,15.3-4Z"/>
              <path class="cls-2" d="M343.6158,63s-10.1-9.2-8.7-12.8c1-2.7,5.9-4.1,14.7-4.6Z"/>
              <path class="cls-2" d="M328.9158,98.8s-7.6-11.4-5.6-15.4c1.6-3.1,8-4.3,14.8-4.4Z"/>
              <path class="cls-2" d="M318.6158,137.1s-8.7-10.6-7.1-14.8c1.2-3.2,7.5-5.1,14.2-5.8Z"/>
              <path class="cls-2" d="M309.7158,155.6s-10.2,2.6-11.9,8c-1.7,5.5,4.1,17.2,3.9,17Z"/>
              <path class="cls-2" d="M298.2158,197.1s-12.5.6-14.4,6.2c-1.5,4.3,1.4,13.2,6,20.1Z"/>
              <path class="cls-2" d="M284.6158,242.2s-15.2,2.1-17,9.1c-1.4,5.4,3,16,9.5,23.8Z"/>
              <path class="cls-2" d="M272.9158,296.6s-13.9-3.8-18,1.6c-3.2,4.1-3.2,14.9-.6,24.1Z"/>
            </g>
            <path class="cls-2" d="M177.5158.3l-2.2,37,10.9.7-.3,5.6-16.7-1,2.6-42.6Z"/>
            <path class="cls-2" d="M212.9158,5.4v5.5h-11V25.8h9.2v5.6h-9.2V42.5l11-.1V48h-16.7V5.4Z"/>
            <path class="cls-2" d="M233.7158,13.7a10.1142,10.1142,0,0,0-.4-2.3,10.2431,10.2431,0,0,0-1-2.1,4.9777,4.9777,0,0,0-1.7-1.5,3.8744,3.8744,0,0,0-2.4-.5,3.25,3.25,0,0,0-1.7.7,3.5987,3.5987,0,0,0-1.1,1.4,6.3568,6.3568,0,0,0-.6,1.8,4.4541,4.4541,0,0,0-.1,1.6,6.6122,6.6122,0,0,0,1.7,3.6,12.5985,12.5985,0,0,0,4.1,2.9,33.4931,33.4931,0,0,1,5.4,3.1,18.933,18.933,0,0,1,3.5,3.4,11.78,11.78,0,0,1,1.9,3.9,21.1794,21.1794,0,0,1,.7,4.5c.1,3.1-.6,5.7-2.2,7.5a9.0712,9.0712,0,0,1-6.7,3.1,12.1722,12.1722,0,0,1-4.7-.6,10.4763,10.4763,0,0,1-3.8-2.5,12.99,12.99,0,0,1-2.6-4.3,20.647,20.647,0,0,1-1.1-5.9l5.7-.5a13.1472,13.1472,0,0,0,1.5,6.2,4.2394,4.2394,0,0,0,4.4,2.1,4.7279,4.7279,0,0,0,1.9-.6,3.4473,3.4473,0,0,0,1.2-1.2,4.7149,4.7149,0,0,0,.6-1.5,7.5682,7.5682,0,0,0,.1-1.5,9.3858,9.3858,0,0,0-2.2-5.6,16.7167,16.7167,0,0,0-6-4.4c-5.7-2.7-8.7-6.5-9.1-11.5a14.7956,14.7956,0,0,1,.3-4.3,10.1923,10.1923,0,0,1,1.6-3.5,8.4916,8.4916,0,0,1,2.9-2.4,10.87,10.87,0,0,1,4.3-1.1,11.0156,11.0156,0,0,1,4.1.5,9.49,9.49,0,0,1,3.4,2.2,10.7707,10.7707,0,0,1,2.4,3.7,15.9537,15.9537,0,0,1,1.1,5.2Z"/>
            <path class="cls-2" d="M116.4158,37.7a7.1586,7.1586,0,0,0-3.4-1,17.04,17.04,0,0,0-3.3.1,11.8422,11.8422,0,0,0-6.1,4.5,22.1473,22.1473,0,0,0-3.6,7.9,43.467,43.467,0,0,0-1.2,10.8,77.773,77.773,0,0,0,1.2,13.1,50.17,50.17,0,0,0,2.5,9.2,40.1227,40.1227,0,0,0,4.2,8,21.7657,21.7657,0,0,0,5.4,5.5,9.1951,9.1951,0,0,0,6.1,1.7,8.6235,8.6235,0,0,0,3.8-1.3,14.9082,14.9082,0,0,0,3.9-3.3l6.8,8.4a16.7846,16.7846,0,0,1-6.2,5.3,28.8665,28.8665,0,0,1-6.5,2.1,15.8725,15.8725,0,0,1-10.5-1.5,28.2555,28.2555,0,0,1-9-7.4,48.8834,48.8834,0,0,1-7-11.4,64.4368,64.4368,0,0,1-4.4-13.7,75.3034,75.3034,0,0,1-1.5-16.4,51.4576,51.4576,0,0,1,2.5-15.2,30.8721,30.8721,0,0,1,6.8-11.7,19.3788,19.3788,0,0,1,11.6-5.9,25.7226,25.7226,0,0,1,4.8-.2,24.9221,24.9221,0,0,1,5.1.9Z"/>
            <path class="cls-2" d="M139.4158,116.8l3.4-62.7c1.7,0,3.3.1,5,.2s3.3.2,5,.4c1.6.2,3.1.4,4.5.7a22.1556,22.1556,0,0,1,3.6,1.1,16.0628,16.0628,0,0,1,4.8,3.2,14.0259,14.0259,0,0,1,2.8,4.2,15.6812,15.6812,0,0,1,1.3,4.7,38.663,38.663,0,0,1,.3,4.8,25.0968,25.0968,0,0,1-1,6,19.9128,19.9128,0,0,1-2.6,5.5,17.9312,17.9312,0,0,1-4.3,4.4,17.3165,17.3165,0,0,1-6.2,2.6l12,26.4-8.9-.5-10.9-24.6-1.3,24Zm22.6-43.7a14.2126,14.2126,0,0,0-.6-4.2,7.2091,7.2091,0,0,0-2.1-3.3,10.0287,10.0287,0,0,0-3.8-2.2,16.1693,16.1693,0,0,0-5.7-.7l-1.2,21.5a16.4554,16.4554,0,0,0,5.9-.1,9.2652,9.2652,0,0,0,4.2-2.1,10.0833,10.0833,0,0,0,2.5-3.8A17.0149,17.0149,0,0,0,162.0158,73.1Z"/>
            <path class="cls-2" d="M202.6158,112.4a78.4831,78.4831,0,0,1-.3,12,34.2793,34.2793,0,0,1-2.5,9.8,18.3394,18.3394,0,0,1-4.9,6.8,13.9248,13.9248,0,0,1-7.6,3c-5.6.4-10-1.8-13.2-6.7-3.3-4.9-5.3-12.4-6-22.4a61.0159,61.0159,0,0,1,.1-11.3,42.3281,42.3281,0,0,1,2.2-10.6,23.42,23.42,0,0,1,4.9-8.1,12.9691,12.9691,0,0,1,8.1-3.9,11.1585,11.1585,0,0,1,6.4,1,14.4225,14.4225,0,0,1,4.9,4,25.63,25.63,0,0,1,3.5,6.1,45.6371,45.6371,0,0,1,2.4,7.1c.6,2.4,1.1,4.8,1.5,7.1C202.3158,108.6,202.5158,110.6,202.6158,112.4Zm-8.5.4a87.73,87.73,0,0,0-1.3-9.7,39.6184,39.6184,0,0,0-2.2-7.5,16.5817,16.5817,0,0,0-2.9-4.7,3.8449,3.8449,0,0,0-3.4-1.4,6.1553,6.1553,0,0,0-4.7,3,19.4525,19.4525,0,0,0-2.5,6.4,39.6837,39.6837,0,0,0-1,7.9,59.0979,59.0979,0,0,0,.1,7.4c.5,6.9,1.7,12.2,3.6,16s4.2,5.6,6.8,5.4a5.4539,5.4539,0,0,0,3.7-1.8,10.6124,10.6124,0,0,0,2.5-4.6,32.6648,32.6648,0,0,0,1.2-7.1A56.903,56.903,0,0,0,194.1158,112.8Z"/>
            <path class="cls-2" d="M231.3158,89.6a4.8952,4.8952,0,0,0-2.5-.7,9.8151,9.8151,0,0,0-2.5.1,9.6117,9.6117,0,0,0-4.6,3.4,16.5982,16.5982,0,0,0-2.7,6,33.4594,33.4594,0,0,0-.9,8.1,57.5919,57.5919,0,0,0,.9,9.8,33.6636,33.6636,0,0,0,1.9,6.9,24.3459,24.3459,0,0,0,3.2,6,17.386,17.386,0,0,0,4,4.1,6.6579,6.6579,0,0,0,4.6,1.3,7.7181,7.7181,0,0,0,2.9-1,11.063,11.063,0,0,0,2.9-2.5l5.1,6.3a12.4536,12.4536,0,0,1-4.7,4,19.9928,19.9928,0,0,1-4.9,1.6,11.9671,11.9671,0,0,1-7.9-1.1,22.0027,22.0027,0,0,1-6.8-5.5,38.0027,38.0027,0,0,1-5.3-8.6,45.8511,45.8511,0,0,1-3.3-10.3,57.2293,57.2293,0,0,1-1.1-12.4,36.77,36.77,0,0,1,1.9-11.4,23.99,23.99,0,0,1,5.1-8.8,14.5787,14.5787,0,0,1,8.7-4.4,21.7378,21.7378,0,0,1,3.6-.2,18.0081,18.0081,0,0,1,3.8.7Z"/>
            <path class="cls-2" d="M279.2158,97.5a72.5989,72.5989,0,0,1-1.2,11.9,34.9026,34.9026,0,0,1-3.2,9.6,17.1114,17.1114,0,0,1-5.4,6.4,13.6035,13.6035,0,0,1-7.8,2.4c-5.6,0-9.8-2.5-12.7-7.7s-4.3-12.8-4.3-22.8a72.6815,72.6815,0,0,1,.9-11.3,40.7094,40.7094,0,0,1,3-10.4,22.9559,22.9559,0,0,1,5.5-7.7,13.6785,13.6785,0,0,1,8.4-3.3,10.9338,10.9338,0,0,1,6.3,1.5,13.5,13.5,0,0,1,4.5,4.4,22.984,22.984,0,0,1,3,6.3,45.78,45.78,0,0,1,1.8,7.3,61.5625,61.5625,0,0,1,.9,7.2C279.1158,93.7,279.2158,95.8,279.2158,97.5Zm-8.6-.2a72.1045,72.1045,0,0,0-.6-9.7,43.738,43.738,0,0,0-1.6-7.6,13.9785,13.9785,0,0,0-2.6-4.9,4.1625,4.1625,0,0,0-3.3-1.7,6.5136,6.5136,0,0,0-4.9,2.6,17.92,17.92,0,0,0-3,6.2,37.1968,37.1968,0,0,0-1.5,7.8,68.8668,68.8668,0,0,0-.5,7.3q0,10.35,2.4,16.2c1.6,3.9,3.7,5.9,6.4,5.9a5.9735,5.9735,0,0,0,3.9-1.5,12.4673,12.4673,0,0,0,2.9-4.4,28.7459,28.7459,0,0,0,1.8-6.9A85.5139,85.5139,0,0,0,270.6158,97.3Z"/>
            <path class="cls-2" d="M302.1158,50.5a10.0389,10.0389,0,0,0-.6-3.3,12.7618,12.7618,0,0,0-1.5-3.1,7.914,7.914,0,0,0-2.5-2.3,6.8491,6.8491,0,0,0-3.6-.8,4.3034,4.3034,0,0,0-2.5,1,6.8448,6.8448,0,0,0-1.7,2.1,11.4216,11.4216,0,0,0-.9,2.6,6.4909,6.4909,0,0,0-.2,2.3,8.8749,8.8749,0,0,0,2.5,5.4,15.9637,15.9637,0,0,0,6,4.3,41.1727,41.1727,0,0,1,7.9,4.6,24.6082,24.6082,0,0,1,5.1,5.1,18.3157,18.3157,0,0,1,2.8,5.8,23.9087,23.9087,0,0,1,.9,6.6c.1,4.6-1,8.3-3.4,11a13.98,13.98,0,0,1-9.9,4.5,15.6607,15.6607,0,0,1-6.9-1,14.7284,14.7284,0,0,1-5.5-3.8,17.41,17.41,0,0,1-3.7-6.4,28.1963,28.1963,0,0,1-1.5-8.7l8.4-.6a17.6518,17.6518,0,0,0,2.1,9.2,6.4135,6.4135,0,0,0,6.4,3.2,5.4591,5.4591,0,0,0,2.8-.9,7.69,7.69,0,0,0,1.8-1.8,4.69,4.69,0,0,0,.9-2.2,8.9534,8.9534,0,0,0,.2-2.3,13.27,13.27,0,0,0-3.2-8.3,23.268,23.268,0,0,0-8.7-6.6c-8.3-4-12.7-9.7-13.2-17a18.3578,18.3578,0,0,1,.5-6.3,13.5148,13.5148,0,0,1,2.5-5.1,11.8023,11.8023,0,0,1,4.4-3.5,15.3819,15.3819,0,0,1,6.3-1.5,15.5525,15.5525,0,0,1,6.1.8,12.8617,12.8617,0,0,1,5,3.3,16.2121,16.2121,0,0,1,3.5,5.5,22.331,22.331,0,0,1,1.5,7.6Z"/>
          </g>
        </g>
        <g id="yeux">
          <g>
            <path id="_Masque_3" data-name=" Masque 3" class="cls-3" d="M102.4158,299.3s-2.1-6.2-5.8-7.8c-2.1-.9-24.9,6.9-24.6,13C72.2158,309,97.9158,302.5,102.4158,299.3Z"/>
            <g class="cls-4">
              <ellipse cx="90.9211" cy="301.6127" rx="13.5" ry="4.2" transform="translate(-80.1539 37.0939) rotate(-16.117)"/>
            </g>
          </g>
          <g>
            <path id="_Masque_4" data-name=" Masque 4" class="cls-3" d="M103.7158,320c1.7-1.1,1.9-11,.6-12.3-1.6-1.6-30.4,7.1-29.8,13.6C75.1158,326.5,94.7158,325.8,103.7158,320Z"/>
            <g class="cls-5">
              <ellipse cx="95.5013" cy="320.1027" rx="14.2" ry="4.4" transform="translate(-85.8087 39.5445) rotate(-16.2602)"/>
            </g>
          </g>
        </g>
      </g>
    </g>
  </g>
</svg>
